<svg id="Layer_5" enable-background="new 0 0 64 64" height="512" viewBox="0 0 64 64" width="512" xmlns="http://www.w3.org/2000/svg" xmlns:xlink="http://www.w3.org/1999/xlink"><linearGradient id="SVGID_1_" gradientUnits="userSpaceOnUse" x1="32" x2="32" y1="55" y2="9"><stop offset="0" stop-color="#9f2fff"/><stop offset="1" stop-color="#0bb1d3"/></linearGradient><path d="m28 23h-20c-1.654 0-3 1.346-3 3v18c0 1.654 1.346 3 3 3h20c1.654 0 3-1.346 3-3v-18c0-1.654-1.346-3-3-3zm-13 9c0-1.654 1.346-3 3-3s3 1.346 3 3-1.346 3-3 3-3-1.346-3-3zm10 13h-14v-1c0-3.859 3.141-7 7-7s7 3.141 7 7zm4-1c0 .552-.448 1-1 1h-1v-1c0-3.768-2.33-6.998-5.623-8.337.991-.914 1.623-2.212 1.623-3.663 0-2.757-2.243-5-5-5s-5 2.243-5 5c0 1.451.632 2.749 1.623 3.663-3.293 1.339-5.623 4.569-5.623 8.337v1h-1c-.552 0-1-.448-1-1v-18c0-.551.448-1 1-1h20c.552 0 1 .449 1 1zm28-1h-22c-1.103 0-2 .897-2 2v4c0 1.103.897 2 2 2h22c1.103 0 2-.897 2-2v-4c0-1.103-.897-2-2-2zm-10 2h4v4h-4zm-2 4h-4v-4h4zm-10-4h4v4h-4zm18 4v-4h4l.002 4zm-5-40c-6.516 0-12.059 4.184-14.125 10h-10.875v-1c0-1.654-1.346-3-3-3h-10c-1.654 0-3 1.346-3 3v1h-1c-2.757 0-5 2.243-5 5v26c0 2.757 2.243 5 5 5h52c2.757 0 5-2.243 5-5v-26c0-8.271-6.729-15-15-15zm0 24c-4.963 0-9-4.038-9-9s4.037-9 9-9 9 4.038 9 9-4.037 9-9 9zm7.034-17.448c-1.667-1.391-3.751-2.294-6.034-2.501v-2c2.833.217 5.411 1.341 7.447 3.088zm-8.034-2.501c-2.283.207-4.366 1.111-6.034 2.501l-1.414-1.414c2.036-1.747 4.615-2.871 7.447-3.088v2.001zm-7.448 3.915c-1.391 1.667-2.294 3.751-2.501 6.034h-2c.217-2.833 1.341-5.411 3.088-7.447zm-2.501 8.034c.207 2.283 1.111 4.366 2.501 6.034l-1.414 1.414c-1.747-2.036-2.871-4.615-3.088-7.447h2.001zm3.915 7.448c1.667 1.391 3.751 2.294 6.034 2.501v2c-2.833-.217-5.411-1.341-7.447-3.088zm8.034 2.501c2.283-.207 4.366-1.111 6.034-2.501l1.414 1.414c-2.036 1.747-4.615 2.871-7.447 3.088v-2.001zm8.861-2.502-1.414-1.414c1.391-1.667 2.294-3.751 2.501-6.034h2c-.216 2.834-1.339 5.412-3.087 7.448zm1.088-9.447c-.207-2.283-1.111-4.366-2.501-6.034l1.414-1.414c1.747 2.036 2.871 4.615 3.088 7.447h-2.001zm-49.949-5c0-.551.448-1 1-1h10c.552 0 1 .449 1 1v1h-12zm52 32c0 1.654-1.346 3-3 3h-52c-1.654 0-3-1.346-3-3v-26c0-1.654 1.346-3 3-3h27.302c-.197.97-.302 1.973-.302 3 0 8.271 6.729 15 15 15 5.558 0 10.409-3.046 13-7.549zm-13-31c-2.757 0-5 2.243-5 5s2.243 5 5 5 5-2.243 5-5-2.243-5-5-5zm0 8c-1.654 0-3-1.346-3-3s1.346-3 3-3 3 1.346 3 3-1.346 3-3 3zm1-3c0 .552-.448 1-1 1s-1-.448-1-1 .448-1 1-1 1 .448 1 1zm-40 25h2v2h-2zm-4 0h2v2h-2zm8 0h2v2h-2z" fill="url(#SVGID_1_)"/></svg>